<svg width="40" height="36" viewBox="0 0 40 36" fill="none" xmlns="http://www.w3.org/2000/svg">
<path d="M27.6584 14.2514C27.3091 13.605 26.6335 13.2022 25.8988 13.2022H17.3744C15.8598 13.2022 14.8948 14.8204 15.6148 16.1529L19.5159 23.3731C19.8365 23.9663 19.8365 24.6812 19.5159 25.2745L15.6148 32.4946C14.8948 33.8272 15.8598 35.4454 17.3744 35.4454H25.8988C26.6335 35.4454 27.3091 35.0425 27.6584 34.3961L32.5873 25.2746C32.9079 24.6812 32.9079 23.9663 32.5873 23.373L27.6584 14.2514Z" fill="white"/>
<path d="M37.3874 13.2022C38.9992 13.2022 39.949 15.0112 39.0337 16.3379L36.3481 20.2309C35.5181 21.4339 33.7201 21.3694 32.9785 20.1101L30.6858 16.2171C29.9006 14.8839 30.8618 13.2022 32.4091 13.2022H37.3874Z" fill="#E35353"/>
<path d="M14.0213 2.04523C14.0213 0.377217 12.0997 -0.557876 10.7871 0.471448L0.765807 8.33044C0.282368 8.70957 0 9.28985 0 9.90422V33.4457C0 34.5503 0.895431 35.4457 2 35.4457H12.0213C13.1259 35.4457 14.0213 34.5503 14.0213 33.4457V2.04523Z" fill="white"/>
</svg>
