<svg width="40" height="36" viewBox="0 0 40 36" fill="none" xmlns="http://www.w3.org/2000/svg">
<path d="M28.2277 14.4662C27.8784 13.8199 27.2029 13.417 26.4682 13.417H17.9437C16.4291 13.417 15.4642 15.0352 16.1842 16.3678L20.0853 23.5879C20.4058 24.1812 20.4058 24.8961 20.0853 25.4893L16.1842 32.7095C15.4642 34.042 16.4291 35.6602 17.9437 35.6602H26.4682C27.2029 35.6602 27.8784 35.2574 28.2277 34.611L33.1567 25.4894C33.4773 24.8961 33.4773 24.1811 33.1567 23.5878L28.2277 14.4662Z" fill="#151F35"/>
<path d="M37.9568 13.417C39.5686 13.417 40.5183 15.226 39.603 16.5527L36.9174 20.4457C36.0875 21.6487 34.2895 21.5843 33.5478 20.3249L31.2551 16.432C30.4699 15.0987 31.4311 13.417 32.9784 13.417H37.9568Z" fill="#E35353"/>
<path d="M14.5907 2.26007C14.5907 0.59206 12.669 -0.343032 11.3565 0.686292L1.33514 8.54529C0.851704 8.92441 0.569336 9.50469 0.569336 10.1191V33.6606C0.569336 34.7652 1.46477 35.6606 2.56934 35.6606H12.5907C13.6952 35.6606 14.5907 34.7652 14.5907 33.6606V2.26007Z" fill="#151F35"/>
</svg>
