<svg id="Star" xmlns="http://www.w3.org/2000/svg" viewBox="0 0 71.6 52.27"><defs><style>.cls-1{fill:#151f35;}</style></defs><title>star</title><path id="Line" class="cls-1" d="M.25,25.83a.3.3,0,0,0-.17.1.27.27,0,0,0-.08.18.27.27,0,0,0,.08.19.37.37,0,0,0,.17.1h0c1.19.31,2.37.6,3.56.88A140.8,140.8,0,0,0,35.8,31a140.89,140.89,0,0,0,32-3.72c1.18-.28,2.37-.57,3.55-.88a.4.4,0,0,0,.18-.1.26.26,0,0,0,.07-.19.26.26,0,0,0-.07-.18.32.32,0,0,0-.18-.1c-1.18-.31-2.37-.6-3.55-.88a140.9,140.9,0,0,0-32-3.73A140.82,140.82,0,0,0,3.81,25C2.62,25.23,1.44,25.52.25,25.83Z" transform="translate(0 0)"/><path id="Cross" class="cls-1" d="M55.44,51.85c-.32-1.09-.66-2.16-1-3.23a94.58,94.58,0,0,0-10.8-22.49A94.32,94.32,0,0,0,54.43,3.65c.35-1.07.69-2.15,1-3.24a.34.34,0,0,0,0-.2.27.27,0,0,0-.1-.16.3.3,0,0,0-.19,0A.62.62,0,0,0,55,.07C54,.71,53.11,1.36,52.2,2A95.47,95.47,0,0,0,36.29,16.49,95.07,95.07,0,0,0,20.38,2C19.47,1.36,18.55.71,17.61.07A.62.62,0,0,0,17.42,0a.32.32,0,0,0-.19.05.34.34,0,0,0-.1.16.44.44,0,0,0,0,.2c.32,1.09.66,2.17,1,3.24A94.32,94.32,0,0,0,29,26.13a94.58,94.58,0,0,0-10.8,22.49c-.35,1.07-.69,2.14-1,3.23a.46.46,0,0,0,0,.2.32.32,0,0,0,.1.17.3.3,0,0,0,.19,0,.34.34,0,0,0,.19-.07c.94-.63,1.86-1.28,2.77-1.94A95.07,95.07,0,0,0,36.29,35.78,95.47,95.47,0,0,0,52.2,50.25c.91.66,1.83,1.31,2.77,1.94a.37.37,0,0,0,.19.07.3.3,0,0,0,.19,0,.27.27,0,0,0,.1-.17A.35.35,0,0,0,55.44,51.85Z" transform="translate(0 0)"/></svg>