<svg xmlns="http://www.w3.org/2000/svg" viewBox="0 0 724.76 657.48"><defs><style>.a,.g,.v,.w{fill:#e6e6e6;}.a,.b,.c,.d,.e,.f,.g,.h,.i,.j,.m,.n,.o,.p,.q,.r,.s,.t,.u,.w{stroke:#151f35;}.a,.c,.d,.e,.f,.h,.j,.m,.n,.o,.p,.q,.r,.t,.u,.w{stroke-miterlimit:10;}.a,.b,.c,.d,.e,.f,.i,.j,.o,.q,.r,.s,.t,.u,.w{stroke-width:5px;}.b,.r,.u{fill:#1a1a1a;}.b,.g,.i,.s{stroke-linejoin:round;}.c{fill:#666;}.d,.k{fill:#ccc;}.e,.i{fill:#b3b3b3;}.f{fill:#f2f2f2;}.g,.n,.u,.w{stroke-linecap:round;}.g,.h,.p{stroke-width:3px;}.h{fill:gray;}.j,.n,.p{fill:none;}.l,.m{fill:#151f35;}.n{stroke-width:4px;}.o{fill:#fff;}.q,.s{fill:#333;}.t{fill:#4d4d4d;}</style></defs><title>rubber-hose</title><polygon class="a" points="418.46 477.03 427.46 500.03 416.46 507.03 405.46 477.03 418.46 477.03"/><path class="b" d="M604.5,677.5l8,9s-17,65-46,67c-45.9,3.17-52-13.67-46.48-26.83s40.48,3.83,40.48,3.83l30-20Z" transform="translate(-165.04 -186.47)"/><path class="c" d="M453.25,734.51s-10.75,13-23.75,1-53-65-32-75S456,724.52,453.25,734.51Z" transform="translate(-165.04 -186.47)"/><polygon class="a" points="257.46 535.03 237.47 508.03 272.69 492 281.68 502.74 257.46 535.03"/><path class="c" d="M417.5,548.5s-8,45,0,60,25,31,67,29,51,33,51,33,0,24,33,9,41-35,31-46-32.9-41.66-76-48c-34-5-27.6-29-30-42C489.84,523.71,439.5,480.5,417.5,548.5Z" transform="translate(-165.04 -186.47)"/><path class="c" d="M479.5,569.5c-7,7-15.52,21.36-27,34-19.72,21.71-34.54,38.35-36,40-.06.06-3.53,7.53-3.59,7.59L401.5,656.5c-2.64,2.46-.57,10,2.14,12.36,12,10.5,41.12,38.18,47.48,63.61a2.63,2.63,0,0,0,4.4,1.28c14.07-13.92,66.7-66.25,84-87.25,46-55.92,50.51-85.81,51-91.13a2.54,2.54,0,0,0-.46-1.71c-2-2.75-10.64-11-42.49-12.16C490.5,539.5,492.5,556.5,479.5,569.5Z" transform="translate(-165.04 -186.47)"/><path class="d" d="M303.22,314l-3.06,9.07a2.49,2.49,0,0,0,1.63,3.18l140.92,43.31a2.49,2.49,0,0,0,3.19-1.94l1.8-9.93a2.49,2.49,0,0,0-1.73-2.84L306.31,312.43A2.5,2.5,0,0,0,303.22,314Z" transform="translate(-165.04 -186.47)"/><path class="e" d="M449.5,424.5c-9,4-53.94,21.57-84,7-33-16-64-42-41-115l52,7s-23,58,10,64,45.07-2.24,60-4c3.21-.38,18-.74,25.62-.92a3.23,3.23,0,0,1,3.31,3.38C475,395.86,469.78,415.49,449.5,424.5Z" transform="translate(-165.04 -186.47)"/><path class="f" d="M310.55,286.73,286,277a9.73,9.73,0,0,0-6.41.57c-2.42,1.25-1.9,1.55-4.3,5.7a8.76,8.76,0,0,0,0,8.94,4.64,4.64,0,0,0,2.6,2.05l25.46,10.46Z" transform="translate(-165.04 -186.47)"/><path class="f" d="M309,279c-3.07,7.42-9.29,23.08-12.36,30.81a4.5,4.5,0,0,0,2.85,5.95l302.19,95,52.28,8.7a1.36,1.36,0,0,0,1.39-.61A1.37,1.37,0,0,0,655,417l-46.11-30.87L314.74,276.5A4.5,4.5,0,0,0,309,279Z" transform="translate(-165.04 -186.47)"/><line class="f" x1="489.36" y1="231.77" x2="498.16" y2="236.19"/><path class="f" d="M608.85,386.08a21.65,21.65,0,0,0-8.56,11.61c-2.65,8.83,2.34,14.12,2.34,14.12" transform="translate(-165.04 -186.47)"/><path class="g" d="M730.17,674.72s7.33,19.78,6.33,49.78,8,26,8,26-10,4-14-10c0,0-4,7-4,12s-6-2-4-22,1.63-34.41.81-35.7-5.81-13.3-5.81-13.3l7-11Z" transform="translate(-165.04 -186.47)"/><path class="h" d="M619.11,495.08c-.73.43-1.17,1.19-.66,1.85,2.46,3.22,10.21,10.78,29,11.57,24,1,40.24-7.76,38-10C674.5,487.5,633.5,486.5,619.11,495.08Z" transform="translate(-165.04 -186.47)"/><rect class="a" x="480.46" y="290.03" width="14" height="41"/><path class="i" d="M557.13,387.18c12.37,1.32,12.37,1.32,26.37,2.32,16.88,1.21,38-2,66,15s35,31,36,69v23s-18-13-66-3c0,0,12-53-38-49l-12,2s-3,1-7-5-16-42-13-48S551.77,386.62,557.13,387.18Z" transform="translate(-165.04 -186.47)"/><path class="j" d="M620.76,479.83S658.5,465.5,685.5,483" transform="translate(-165.04 -186.47)"/><path class="e" d="M576.74,448.37c-3.27-13.47-17-48.35-21.1-58.55a4.76,4.76,0,0,0-4.2-3l-83.56-4.06a5.8,5.8,0,0,0-5.43,3.11l-22.57,43.22S406.5,514.5,413.5,553.5c0,0,70-6,103,1s74,0,74,0S583.06,474.37,576.74,448.37Z" transform="translate(-165.04 -186.47)"/><path class="d" d="M506.5,409.5S491.41,523,494,551.76" transform="translate(-165.04 -186.47)"/><path class="d" d="M438.83,523.48l2.51,1.86a1.66,1.66,0,0,0,2.28-.28l30.91-37.39a1.67,1.67,0,0,0-.1-2.24l-4.54-4.54a1.68,1.68,0,0,0-2.54.2l-28.89,40.07A1.67,1.67,0,0,0,438.83,523.48Z" transform="translate(-165.04 -186.47)"/><path class="d" d="M568.24,528.48l-2.51,1.86a1.66,1.66,0,0,1-2.28-.28l-30.92-37.39a1.66,1.66,0,0,1,.11-2.24l4.54-4.54a1.67,1.67,0,0,1,2.53.2l28.89,40.07A1.68,1.68,0,0,1,568.24,528.48Z" transform="translate(-165.04 -186.47)"/><path class="k" d="M558.54,454.33,522,452.66a3.73,3.73,0,0,1-3.54-3.88l.12-2.57a3.7,3.7,0,0,1,3.71-3.54h.17L559,444.34a3.73,3.73,0,0,1,3.54,3.88l-.12,2.57a3.7,3.7,0,0,1-3.71,3.54Z" transform="translate(-165.04 -186.47)"/><path class="l" d="M522.29,445.17h.05l36.54,1.67A1.21,1.21,0,0,1,560,448.1l-.12,2.58a1.2,1.2,0,0,1-1.21,1.15h-.05l-36.54-1.67A1.21,1.21,0,0,1,521,448.9l.12-2.58a1.2,1.2,0,0,1,1.21-1.15m0-5h0a6.21,6.21,0,0,0-6.21,5.92l-.11,2.58a6.22,6.22,0,0,0,5.92,6.49l36.54,1.67h.28a6.21,6.21,0,0,0,6.21-5.92l.11-2.58a6.22,6.22,0,0,0-5.92-6.49l-36.54-1.67Z" transform="translate(-165.04 -186.47)"/><path class="a" d="M629.05,537.25c-3.78-2.94-8.2-4.19-11.31-11.26s6.63-16.59,6.63-16.59c8.85-7.74,22.31-6.08,22.31-6.08s12.58,2.37,16.55,3.9a52.08,52.08,0,0,1,6.8,3.86c10.62,6.8,3.83,26.48,3.83,26.48-.93,6.16-10.18,10.84-18.07,8.41C655.79,546,639.25,545.2,629.05,537.25Z" transform="translate(-165.04 -186.47)"/><path class="d" d="M468.5,386.5c0,6.54,21.65,35.65,29,43,1,1,2.57-.47,3-1.5l6-18.5,2.64,20.23a1.66,1.66,0,0,0,2.62,1.14c9.13-6.6,42.74-31.32,42.74-37.37,0-7-15-25-34-29a60.63,60.63,0,0,0-33,2S468.5,375.5,468.5,386.5Z" transform="translate(-165.04 -186.47)"/><path class="a" d="M474.5,232.5c-21,29-20.14,76.44-14,101,1,4,6,27,39,32,36.7,5.56,47-7,53-13,4.75-4.75,17-18.92,21.94-24.6a2.09,2.09,0,0,1,2.81-.4c1,.75,3.25,1,8.25-1,10-4,15-27,15-30s6-16,6-16,5.72-64.5-58-73C518.5,203.5,497.34,201,474.5,232.5Z" transform="translate(-165.04 -186.47)"/><path class="m" d="M570.5,278.5s-3,35-2,36c1.58,1.58,14-21,18-27s12.2-.13,12.5,12.5l7.5-19.5v-13l-6.34-23.35-7.43-12.82Z" transform="translate(-165.04 -186.47)"/><path class="n" d="M587,301s1,7-7,14" transform="translate(-165.04 -186.47)"/><path class="n" d="M586,307s-.57,3,4,6" transform="translate(-165.04 -186.47)"/><path class="a" d="M501.07,366.32l-3.54,24a.68.68,0,0,0,.05.37l8.53,18a.64.64,0,0,0,1,.18l18.14-18.14a.65.65,0,0,0,.18-.53l-3.06-22.78a.63.63,0,0,0-.6-.55l-20.06-1.09A.64.64,0,0,0,501.07,366.32Z" transform="translate(-165.04 -186.47)"/><path class="m" d="M487,283a5.77,5.77,0,0,1,5.5-6l.44,0c-.48-6.79-2.89-11.82-6.3-12.19-4.49-.49-9,7.25-10.08,17.27s-.89,18.61,6.17,19c5.43.31,8-4.77,9.34-12.14A5.82,5.82,0,0,1,487,283Z" transform="translate(-165.04 -186.47)"/><path class="m" d="M538,289a5.77,5.77,0,0,1,5.5-6l.44,0c-.48-6.79-2.89-11.82-6.3-12.19-4.49-.49-9,7.25-10.08,17.27s-.89,18.61,6.17,19c5.43.31,8-4.77,9.34-12.14A5.82,5.82,0,0,1,538,289Z" transform="translate(-165.04 -186.47)"/><path class="o" d="M484.5,313.5s11,11,24,11c9,0,25-6,25-6s9-3,12,2c4.15,6.91,1,15-12,20-13.88,5.34-41,9-56-11,0,0-8-11-2-17C479.62,308.38,484.5,313.5,484.5,313.5Z" transform="translate(-165.04 -186.47)"/><line class="j" x1="316.05" y1="124.8" x2="311.96" y2="142.53"/><line class="j" x1="323.33" y1="130.29" x2="319.53" y2="150.19"/><line class="j" x1="331.41" y1="135.15" x2="329.97" y2="155.75"/><line class="j" x1="342.22" y1="138" x2="340.87" y2="158.03"/><line class="j" x1="351.8" y1="136.96" x2="354.21" y2="157.64"/><line class="j" x1="362.18" y1="134.17" x2="366.63" y2="154.7"/><line class="j" x1="370.96" y1="131.53" x2="376.97" y2="149.32"/><path class="m" d="M507.5,197.5c14-14,29-10,29-10,33,0,26,45,26,45l-43.75,10.75h0c-8.54,2.33-19.11-2.12-20.62-3.89a.4.4,0,0,0-.7.22c-.95,8.19-11.93,21.92-11.93,21.92-20,20-35,2-42-5-4.41-4.41-8-3.66-10.1-2.5a.44.44,0,0,1-.56-.67,7.23,7.23,0,0,1,5.66-2.83c5,0,13,3,15-4s-4-21,8-32,22-20,29-20S507.5,197.5,507.5,197.5Z" transform="translate(-165.04 -186.47)"/><path class="m" d="M518.62,242.28c.7-6,5.31-32.06,31.83-26.79l.1,0,2.2.73a.74.74,0,0,0,.94-.48c.8-2.57,4.68-11,20.81-9.27,19,2,23,4,26,6s9,3,9,15,2,34,9,38c3.89,2.23,6.86,2.59,8.72,2.48a.74.74,0,0,1,.58,1.26c-4.74,4.57-18.69,16.32-33.3,12.26-18-5-15-5-15-5s-18,6-26,2-12-4-13-26c0,0-1-17.36-20.89-9.46A.73.73,0,0,1,518.62,242.28Z" transform="translate(-165.04 -186.47)"/><path class="p" d="M763.5,574.5" transform="translate(-165.04 -186.47)"/><path class="p" d="M642.53,400.33" transform="translate(-165.04 -186.47)"/><path class="p" d="M653.47,402.67" transform="translate(-165.04 -186.47)"/><path class="a" d="M362.09,293.11s9.21-11.27,13.23-7.89c2,1.69,5.37,11.64,6.29,17.75,1,7-11.23,14.16-13.21-1.28Z" transform="translate(-165.04 -186.47)"/><path class="a" d="M352.34,287.64s9.2-11.26,13.22-7.88c2,1.69,6.52,8.69,6.29,17.75-.17,7.05-11.22,14.16-13.21-1.28Z" transform="translate(-165.04 -186.47)"/><path class="a" d="M340.44,285.08s9.21-11.26,13.23-7.88c2,1.69,5.57,8.79,6.29,17.75.56,7-11.22,14.16-13.21-1.28Z" transform="translate(-165.04 -186.47)"/><path class="a" d="M329.74,283.52s8-10.28,11.3-7.31c1.67,1.49,4.57,7.82,5,15.87.36,6.31-9.71,12.91-11.14-.94Z" transform="translate(-165.04 -186.47)"/><path class="a" d="M394.68,308.85a4.82,4.82,0,0,0,1-4.69c-.89-2.79-2.94-6.75-7.06-4.93-6.13,2.72-5.37,7.76-5.37,7.76S389.45,314.7,394.68,308.85Z" transform="translate(-165.04 -186.47)"/><path class="q" d="M333.27,624.42s8.23-21.92,29.23-21.92c26.08,0,35,7,38,21s-1,49,7,64,20,23,28,35,3,19-3,23c-22.33,14.88-38.21,4.81-49-1C354.85,729.07,323,668.34,333.27,624.42Z" transform="translate(-165.04 -186.47)"/><path class="r" d="M413.5,744.5c-6,10.12-41,9-45,2-4.09-7.16-79-118-26.24-124.84s40.36,47.32,50.47,69.27C412.23,733.27,420.72,732.28,413.5,744.5Z" transform="translate(-165.04 -186.47)"/><path class="m" d="M889.5,843.5s-78-56.5-326-93.5c-236.27-35.25-383.59,32.74-397,39.25a1.71,1.71,0,0,0-1,1.6l.37,11.53a1.71,1.71,0,0,0,2.43,1.5c19.74-9.17,163.27-70.68,393.16-36.38C809.5,804.5,889.5,843.5,889.5,843.5Z" transform="translate(-165.04 -186.47)"/><path class="s" d="M564.5,713.5s-19-25-37-4,2,30,3,31,33,11,53-10,20-54,20-54l-15-5s2,18-7,15a15.07,15.07,0,0,0-15,3Z" transform="translate(-165.04 -186.47)"/><path class="q" d="M566.5,689.5" transform="translate(-165.04 -186.47)"/><path class="t" d="M730.5,548.47l-181-58s-11-5-17,14c-6.59,20.88-26,105.84-27,118-.31,3.79-4,12.93,9,16,14.84,3.47,171,47,171,47s12,7.06,16-2.08,34.63-86,43-115.72C746.5,560.57,749.5,554.56,730.5,548.47Z" transform="translate(-165.04 -186.47)"/><path class="a" d="M735.5,552.47l-181-58s-11-5-17,14c-6.59,20.88-26,105.84-27,118-.31,3.79-4,9.93,9,13,14.84,3.47,171,50,171,50s21-1,16-2.08c-9.75-2.09,34.63-86,43-115.72C751.5,564.57,754.5,558.56,735.5,552.47Z" transform="translate(-165.04 -186.47)"/><path class="t" d="M698.5,692.47s19,6,23-3,28.63-85.72,37-115c2-7,1-17-14-21L570.27,500.42S558.33,493,551.5,513.47c-7,21-26,104-31,117-1.6,4.15-4,9-10,6Z" transform="translate(-165.04 -186.47)"/><polygon class="u" points="583.8 416.84 378.49 355.7 358.46 352.26 362.33 336.71 382.63 340.04 588.25 404.26 583.8 416.84"/><polygon class="v" points="473.99 328.83 508.55 340.07 510.77 346.7 509.41 349.13 504.71 357.14 498.5 359.81 492.52 360.53 485.32 360.43 478.98 359.86 475.93 358.32 473.72 351.68 477.03 345.05 473.99 328.83"/><path class="w" d="M648.91,526.06c-.93,6.16-6.94,16.16-12.55,16.06s-9-7.55-8.78-10.2c.24-3.14,1-11.74,4.54-12.72,1.53-.42,3.63-.86,4.56-.1,1.66,1.34,1.52,4.69,1.34,5.92a.12.12,0,0,0,.22.07c.91-2.06.57-6.58,0-8.71" transform="translate(-165.04 -186.47)"/><path class="w" d="M648.85,546.72s7.1,1.18,12.32-1.09c7.17-3.12,7.1-6.36,8-12.53" transform="translate(-165.04 -186.47)"/><path class="w" d="M660.27,529.82c-.93,6.16-3.18,13.49-10.35,16.61-5.22,2.27-10.62-3.15-10.62-3.15" transform="translate(-165.04 -186.47)"/><path class="j" d="M670,511.08c10.62,6.8,3.83,26.48,3.83,26.48-.93,6.16-8.57,10.55-16.31,9.44" transform="translate(-165.04 -186.47)"/></svg>